Coordinates
version=1
nRows=14
nColumns=38
inDegrees=no

Units are S.I. units (second, meters, Newtons, ...)
If the header above contains a line with 'inDegrees', this indicates whether rotational values are in degrees (yes) or radians (no).

endheader
time	pelvis_tilt	pelvis_list	pelvis_rotation	pelvis_tx	pelvis_ty	pelvis_tz	hip_flexion_r	hip_adduction_r	hip_rotation_r	knee_angle_r	ankle_angle_r	subtalar_angle_r	mtp_angle_r	hip_flexion_l	hip_adduction_l	hip_rotation_l	knee_angle_l	ankle_angle_l	subtalar_angle_l	mtp_angle_l	lumbar_extension	lumbar_bending	lumbar_rotation	arm_flex_r	arm_add_r	arm_rot_r	elbow_flex_r	pro_sup_r	wrist_flex_r	wrist_dev_r	arm_flex_l	arm_add_l	arm_rot_l	elbow_flex_l	pro_sup_l	wrist_flex_l	wrist_dev_l
49.76	0.981381	1.5501	0.605996	0.697638	-0.151515	0.938694	-0.0440627	-0.0818381	-0.184092	0	-0.0782807	0	0	-0.0765679	-0.128184	-0.382357	0	-0.0702908	0	0	-0.177075	0.00108977	0.0585695	0.170813	-0.242951	0.73934	0.364501	1.0878	0	0	0.106781	-0.245588	0.547014	0.674813	1.10849	0	0
49.77	1.07439	1.54933	0.510534	0.697815	-0.153038	0.938253	-0.0443618	-0.0801869	-0.181093	0	-0.0749712	0	0	-0.077856	-0.129894	-0.386369	0	-0.0646178	0	0	-0.183844	0.00169091	0.0608093	0.179961	-0.244728	0.731527	0.363932	1.08456	0	0	0.117797	-0.24656	0.554451	0.670135	1.10605	0	0
49.78	1.28921	1.55077	0.294096	0.697615	-0.15317	0.937984	-0.0516592	-0.0804771	-0.178108	0	-0.0741347	0	0	-0.0856547	-0.130094	-0.387724	0	-0.0630979	0	0	-0.187725	0.00165182	0.0624166	0.182089	-0.245629	0.721649	0.361163	1.0809	0	0	0.122574	-0.246325	0.561458	0.662932	1.10431	0	0
49.79	1.49485	1.55159	0.0872483	0.697254	-0.153109	0.937599	-0.0580663	-0.0813768	-0.175773	0	-0.0724226	0	0	-0.0923427	-0.12986	-0.388596	0	-0.0611551	0	0	-0.191057	0.00132985	0.0632529	0.184729	-0.249777	0.735118	0.363801	1.02953	0	0	0.127733	-0.24805	0.576762	0.658956	1.05201	0	0
49.8	0.93336	1.54745	0.646203	0.697303	-0.153172	0.935647	-0.0450847	-0.0829581	-0.178654	0	-0.0617353	0	0	-0.0798277	-0.128835	-0.400647	0	-0.05004	0	0	-0.175772	0.000175053	0.0627927	0.183368	-0.254917	0.742885	0.373957	1.02006	0	0	0.119109	-0.247647	0.55256	0.670091	1.03072	0	0
49.81	1.85465	1.55129	-0.274449	0.696571	-0.153279	0.936953	-0.0690231	-0.0840346	-0.170875	0	-0.0693101	0	0	-0.103465	-0.129102	-0.388956	0	-0.0579104	0	0	-0.196541	0.000367543	0.0646754	0.189116	-0.251178	0.725378	0.357794	1.02361	0	0	0.136243	-0.245857	0.584625	0.643563	1.05283	0	0
49.82	1.75577	1.55124	-0.177669	0.696742	-0.154832	0.936384	-0.0640444	-0.0842856	-0.170644	0	-0.0626933	0	0	-0.0993052	-0.129498	-0.39317	0	-0.0501925	0	0	-0.200568	-0.000187119	0.0673955	0.198661	-0.250526	0.711765	0.353069	1.02929	0	0	0.149881	-0.245809	0.595124	0.634729	1.06644	0	0
49.83	2.10773	1.54936	-0.528989	0.696293	-0.153514	0.93662	-0.0754645	-0.0866642	-0.166105	0	-0.0674426	0	0	-0.11007	-0.128417	-0.388759	0	-0.0547426	0	0	-0.202595	-0.000772269	0.0670301	0.194602	-0.248344	0.698343	0.346861	1.03511	0	0	0.149247	-0.243388	0.59871	0.623274	1.07672	0	0
49.84	1.93289	1.55083	-0.357061	0.696301	-0.154888	0.936231	-0.067449	-0.0870758	-0.165487	0	-0.0624047	0	0	-0.103485	-0.12839	-0.393943	0	-0.0484439	0	0	-0.203841	-0.00156838	0.0705084	0.202337	-0.243941	0.662302	0.338084	1.07559	0	0	0.159757	-0.238436	0.588134	0.608804	1.12405	0	0
49.85	2.23598	1.54836	-0.659596	0.695822	-0.153527	0.936743	-0.0774249	-0.0893107	-0.161707	0	-0.0677124	0	0	-0.113094	-0.126894	-0.389899	0	-0.0539063	0	0	-0.205359	-0.00215881	0.069595	0.198561	-0.245957	0.678757	0.339089	1.04588	0	0	0.158132	-0.239078	0.600492	0.604224	1.09331	0	0
49.86	2.25033	1.54887	-0.675214	0.69553	-0.153535	0.936902	-0.0763721	-0.0905682	-0.160137	0	-0.0683025	0	0	-0.112742	-0.125664	-0.391004	0	-0.0540339	0	0	-0.205245	-0.00299535	0.0711381	0.199752	-0.243087	0.657444	0.333872	1.06495	0	0	0.161119	-0.233566	0.587179	0.592749	1.1264	0	0
49.87	2.04559	1.55198	-0.473206	0.695406	-0.154653	0.936785	-0.0667084	-0.0908026	-0.160633	0	-0.0647657	0	0	-0.104644	-0.124775	-0.395846	0	-0.0492337	0	0	-0.204323	-0.00396966	0.0734802	0.206705	-0.24379	0.65913	0.334093	1.05929	0	0	0.168466	-0.232529	0.585992	0.588628	1.12651	0	0
49.88	2.23894	1.55167	-0.66657	0.694759	-0.153284	0.937361	-0.0720686	-0.0930619	-0.158602	0	-0.070679	0	0	-0.110095	-0.122182	-0.392689	0	-0.054894	0	0	-0.202231	-0.00523696	0.0732185	0.2018	-0.243339	0.659824	0.333485	1.05417	0	0	0.164336	-0.230553	0.583198	0.583379	1.12618	0	0
49.89	2.16243	1.55391	-0.59088	0.69444	-0.153326	0.937606	-0.0682928	-0.0941959	-0.159312	0	-0.0721883	0	0	-0.106796	-0.120274	-0.393054	0	-0.0557306	0	0	-0.199152	-0.00603525	0.0733301	0.202504	-0.243736	0.661963	0.334822	1.04967	0	0	0.164637	-0.229565	0.580065	0.581319	1.12468	0	0
